<svg version="1.1" xmlns="http://www.w3.org/2000/svg" xmlns:xlink="http://www.w3.org/1999/xlink" x="0px" y="0px"
	 viewBox="0 0 493.4 225.6" style="enable-background:new 0 0 493.4 225.6;" xml:space="preserve">
<g>
	<path d="M490.5,106.2L380.9,6.3c-3-2.5-6.4-2.9-10-1.4c-3.6,1.5-5.4,4.3-5.4,8.3v64H9.1c-2.7,0-4.9,0.9-6.6,2.6
		C0.9,81.4,0,83.6,0,86.2v54.8c0,2.7,0.9,4.9,2.6,6.6c1.7,1.7,3.9,2.6,6.6,2.6h356.3v64c0,3.8,1.8,6.6,5.4,8.3c3.6,1.5,7,1,10-1.7
		l109.6-101.1c1.9-1.9,2.9-4.2,2.9-6.8C493.4,110.3,492.4,108.1,490.5,106.2z"/>
</g>
</svg>
